<svg width="77" height="24" viewBox="0 0 77 24" fill="none" xmlns="http://www.w3.org/2000/svg">
<g clip-path="url(#clip0_1_197)">
<path d="M2.99994 18.0001H8.99994V16.0001H2.99994V18.0001ZM2.99994 6.00009V8.00009H20.9999V6.00009H2.99994ZM2.99994 13.0001H14.9999V11.0001H2.99994V13.0001Z" fill="white" fill-opacity="0.8"/>
</g>
<path d="M30.2784 17V5.36364H37.4943V6.875H32.0341V10.4205H36.9773V11.9261H32.0341V17H30.2784ZM39.517 17V8.27273H41.2159V17H39.517ZM40.375 6.92614C40.0795 6.92614 39.8258 6.82765 39.6136 6.63068C39.4053 6.42992 39.3011 6.19129 39.3011 5.91477C39.3011 5.63447 39.4053 5.39583 39.6136 5.19886C39.8258 4.99811 40.0795 4.89773 40.375 4.89773C40.6705 4.89773 40.9223 4.99811 41.1307 5.19886C41.3428 5.39583 41.4489 5.63447 41.4489 5.91477C41.4489 6.19129 41.3428 6.42992 41.1307 6.63068C40.9223 6.82765 40.6705 6.92614 40.375 6.92614ZM45.2003 5.36364V17H43.5014V5.36364H45.2003ZM51.5597 8.27273V9.63636H46.7926V8.27273H51.5597ZM48.071 6.18182H49.7699V14.4375C49.7699 14.767 49.8191 15.0152 49.9176 15.1818C50.0161 15.3447 50.143 15.4564 50.2983 15.517C50.4574 15.5739 50.6297 15.6023 50.8153 15.6023C50.9517 15.6023 51.071 15.5928 51.1733 15.5739C51.2756 15.5549 51.3551 15.5398 51.4119 15.5284L51.7188 16.9318C51.6203 16.9697 51.4801 17.0076 51.2983 17.0455C51.1165 17.0871 50.8892 17.1098 50.6165 17.1136C50.1695 17.1212 49.7528 17.0417 49.3665 16.875C48.9801 16.7083 48.6676 16.4508 48.429 16.1023C48.1903 15.7538 48.071 15.3163 48.071 14.7898V6.18182ZM57.1065 17.1761C56.2467 17.1761 55.5062 16.9924 54.8849 16.625C54.2675 16.2538 53.7902 15.733 53.4531 15.0625C53.1198 14.3883 52.9531 13.5985 52.9531 12.6932C52.9531 11.7992 53.1198 11.0114 53.4531 10.3295C53.7902 9.64773 54.2599 9.11553 54.8622 8.73295C55.4683 8.35038 56.1766 8.15909 56.9872 8.15909C57.4796 8.15909 57.9569 8.24053 58.419 8.40341C58.8812 8.56629 59.2959 8.82197 59.6634 9.17045C60.0308 9.51894 60.3205 9.97159 60.5327 10.5284C60.7448 11.0814 60.8509 11.7538 60.8509 12.5455V13.1477H53.9134V11.875H59.1861C59.1861 11.428 59.0952 11.0322 58.9134 10.6875C58.7315 10.339 58.4759 10.0644 58.1463 9.86364C57.8205 9.66288 57.438 9.5625 56.9986 9.5625C56.5213 9.5625 56.1046 9.67992 55.7486 9.91477C55.3963 10.1458 55.1236 10.4489 54.9304 10.8239C54.741 11.1951 54.6463 11.5985 54.6463 12.0341V13.0284C54.6463 13.6117 54.7486 14.108 54.9531 14.517C55.1615 14.9261 55.4512 15.2386 55.8224 15.4545C56.1937 15.6667 56.6274 15.7727 57.1236 15.7727C57.4455 15.7727 57.7391 15.7273 58.0043 15.6364C58.2694 15.5417 58.4986 15.4015 58.6918 15.2159C58.8849 15.0303 59.0327 14.8011 59.1349 14.5284L60.7429 14.8182C60.6141 15.2917 60.383 15.7064 60.0497 16.0625C59.7202 16.4148 59.3054 16.6894 58.8054 16.8864C58.3092 17.0795 57.7429 17.1761 57.1065 17.1761ZM62.7358 17V8.27273H64.3778V9.65909H64.4688C64.6278 9.18939 64.9081 8.82008 65.3097 8.55114C65.715 8.27841 66.1733 8.14205 66.6847 8.14205C66.7907 8.14205 66.9157 8.14583 67.0597 8.15341C67.2074 8.16098 67.3229 8.17045 67.4062 8.18182V9.80682C67.3381 9.78788 67.2169 9.76705 67.0426 9.74432C66.8684 9.7178 66.6941 9.70455 66.5199 9.70455C66.1184 9.70455 65.7604 9.78977 65.446 9.96023C65.1354 10.1269 64.8892 10.3598 64.7074 10.6591C64.5256 10.9545 64.4347 11.2917 64.4347 11.6705V17H62.7358ZM75.4162 10.4034L73.8764 10.6761C73.812 10.4792 73.7098 10.2917 73.5696 10.1136C73.4332 9.93561 73.2476 9.78977 73.0128 9.67614C72.7779 9.5625 72.4844 9.50568 72.1321 9.50568C71.651 9.50568 71.2495 9.61364 70.9276 9.82955C70.6056 10.0417 70.4446 10.3163 70.4446 10.6534C70.4446 10.9451 70.5526 11.1799 70.7685 11.358C70.9844 11.536 71.3329 11.6818 71.8139 11.7955L73.2003 12.1136C74.0033 12.2992 74.6018 12.5852 74.9957 12.9716C75.3897 13.358 75.5866 13.8598 75.5866 14.4773C75.5866 15 75.4351 15.4659 75.1321 15.875C74.8329 16.2803 74.4143 16.5985 73.8764 16.8295C73.3423 17.0606 72.723 17.1761 72.0185 17.1761C71.0412 17.1761 70.2438 16.9678 69.6264 16.5511C69.009 16.1307 68.6302 15.5341 68.4901 14.7614L70.1321 14.5114C70.2344 14.9394 70.4446 15.2633 70.7628 15.483C71.081 15.6989 71.4957 15.8068 72.0071 15.8068C72.5639 15.8068 73.009 15.6913 73.3423 15.4602C73.6757 15.2254 73.8423 14.9394 73.8423 14.6023C73.8423 14.3295 73.7401 14.1004 73.5355 13.9148C73.3348 13.7292 73.026 13.589 72.6094 13.4943L71.1321 13.1705C70.3177 12.9848 69.7154 12.6894 69.3253 12.2841C68.9389 11.8788 68.7457 11.3655 68.7457 10.7443C68.7457 10.2292 68.8897 9.77841 69.1776 9.39205C69.4654 9.00568 69.8632 8.70455 70.3707 8.48864C70.8783 8.26894 71.4598 8.15909 72.1151 8.15909C73.0582 8.15909 73.8007 8.36364 74.3423 8.77273C74.884 9.17803 75.242 9.72159 75.4162 10.4034Z" fill="#F2F2F2"/>
<defs>
<clipPath id="clip0_1_197">
<rect width="24" height="24" fill="white"/>
</clipPath>
</defs>
</svg>
